<svg xmlns="http://www.w3.org/2000/svg" viewBox="0 0 680 200">
  <circle cx="100" cy="100" r="52" fill="none" stroke="#8B5CF6" stroke-width="8"/>
  <circle cx="100" cy="100" r="38" fill="none" stroke="#EC4899" stroke-width="4"/>
  <ellipse cx="100" cy="37" rx="9" ry="16" fill="#EC4899" opacity="0.8" transform="rotate(0 100 100)"/>
  <ellipse cx="100" cy="37" rx="9" ry="16" fill="#C084FC" opacity="0.7" transform="rotate(45 100 100)"/>
  <ellipse cx="100" cy="37" rx="9" ry="16" fill="#EC4899" opacity="0.8" transform="rotate(90 100 100)"/>
  <ellipse cx="100" cy="37" rx="9" ry="16" fill="#C084FC" opacity="0.7" transform="rotate(135 100 100)"/>
  <ellipse cx="100" cy="37" rx="9" ry="16" fill="#EC4899" opacity="0.8" transform="rotate(180 100 100)"/>
  <ellipse cx="100" cy="37" rx="9" ry="16" fill="#C084FC" opacity="0.7" transform="rotate(225 100 100)"/>
  <ellipse cx="100" cy="37" rx="9" ry="16" fill="#EC4899" opacity="0.8" transform="rotate(270 100 100)"/>
  <ellipse cx="100" cy="37" rx="9" ry="16" fill="#C084FC" opacity="0.7" transform="rotate(315 100 100)"/>
  <ellipse cx="100" cy="48" rx="6" ry="11" fill="#10B981" opacity="0.9" transform="rotate(30 100 100)"/>
  <ellipse cx="100" cy="48" rx="6" ry="11" fill="#10B981" opacity="0.9" transform="rotate(150 100 100)"/>
  <ellipse cx="100" cy="48" rx="6" ry="11" fill="#10B981" opacity="0.9" transform="rotate(270 100 100)"/>
  <polygon points="100,44 107,55 100,62 93,55" fill="#F59E0B"/>
</svg>